HIERARCHY
ROOT root
{
	OFFSET	0	13.1	24.9
	CHANNELS 6  Xposition Yposition Zposition Xrotation Yrotation Zrotation
	JOINT spine_1
	{
		OFFSET	0	9.99999	0
		CHANNELS 3  Xrotation Yrotation Zrotation
		JOINT spine_2
		{
			OFFSET	0	112	-10
			CHANNELS 3  Xrotation Yrotation Zrotation
			JOINT spine_3
			{
				OFFSET	0	206.5	19.3
				CHANNELS 3  Xrotation Yrotation Zrotation
				JOINT spine_4
				{
					OFFSET	0	110.4	14.6
					CHANNELS 3  Xrotation Yrotation Zrotation
					JOINT neck_1
					{
						OFFSET	0	71.8	-50.3
						CHANNELS 3  Xrotation Yrotation Zrotation
						JOINT neck_2
						{
							OFFSET	0	86.2	-25.8
							CHANNELS 3  Xrotation Yrotation Zrotation
							JOINT head_ee
							{
								OFFSET	0	179.8	-8.7
								CHANNELS 3  Xrotation Yrotation Zrotation
								End Site
								{
									OFFSET	1	0	0
								}
							}
						}
					}
					JOINT left_clavicle
					{
						OFFSET	-43.2	22.4	-70.8
						CHANNELS 3  Xrotation Yrotation Zrotation
						JOINT left_shoulder
						{
							OFFSET	-93.9	-5.79999	48.7
							CHANNELS 3  Xrotation Yrotation Zrotation
							JOINT left_elbow
							{
								OFFSET	-291.4	-30.8	15.2
								CHANNELS 3  Xrotation Yrotation Zrotation
								JOINT left_lowarm_twist
								{
									OFFSET	-110.7	-3.89999	13.6
									CHANNELS 3  Xrotation Yrotation Zrotation
									JOINT left_hand
									{
										OFFSET	-110.7	-3.89999	13.6
										CHANNELS 3  Xrotation Yrotation Zrotation
										JOINT left_ee
										{
											OFFSET	-80.8	-5.10001	12.1
											CHANNELS 3  Xrotation Yrotation Zrotation
											End Site
											{
												OFFSET	1	0	0
											}
										}
									}
								}
							}
						}
					}
					JOINT right_clavicle
					{
						OFFSET	43.2	22.4	-70.8
						CHANNELS 3  Xrotation Yrotation Zrotation
						JOINT right_shoulder
						{
							OFFSET	93.9	-5.79999	48.7
							CHANNELS 3  Xrotation Yrotation Zrotation
							JOINT right_elbow
							{
								OFFSET	291.4	-30.8	15.2
								CHANNELS 3  Xrotation Yrotation Zrotation
								JOINT right_lowarm_twist
								{
									OFFSET	110.7	-3.89999	13.6
									CHANNELS 3  Xrotation Yrotation Zrotation
									JOINT right_hand
									{
										OFFSET	110.7	-3.89999	13.6
										CHANNELS 3  Xrotation Yrotation Zrotation
										JOINT right_ee
										{
											OFFSET	80.8	-5.10001	12.1
											CHANNELS 3  Xrotation Yrotation Zrotation
											End Site
											{
												OFFSET	1	0	0
											}
										}
									}
								}
							}
						}
					}
				}
			}
		}
	}
	JOINT left_hip
	{
		OFFSET	-82.8	-127.5	0.300001
		CHANNELS 3  Xrotation Yrotation Zrotation
		JOINT left_knee
		{
			OFFSET	-28.2	-396.7	2.2
			CHANNELS 3  Xrotation Yrotation Zrotation
			JOINT left_ankle
			{
				OFFSET	-11.7	-411.3	35.4
				CHANNELS 3  Xrotation Yrotation Zrotation
				JOINT left_toes
				{
					OFFSET	0	-60	-88.6
					CHANNELS 3  Xrotation Yrotation Zrotation
					JOINT left_foot_ee
					{
						OFFSET	-22.5	-16.5	-42.2
						CHANNELS 3  Xrotation Yrotation Zrotation
						End Site
						{
							OFFSET	1	0	0
						}
					}
				}
			}
		}
	}
	JOINT right_hip
	{
		OFFSET	82.8	-127.5	0.300001
		CHANNELS 3  Xrotation Yrotation Zrotation
		JOINT right_knee
		{
			OFFSET	28.2	-396.7	2.2
			CHANNELS 3  Xrotation Yrotation Zrotation
			JOINT right_ankle
			{
				OFFSET	11.7	-411.3	35.4
				CHANNELS 3  Xrotation Yrotation Zrotation
				JOINT right_toes
				{
					OFFSET	0	-60	-88.6
					CHANNELS 3  Xrotation Yrotation Zrotation
					JOINT right_foot_ee
					{
						OFFSET	22.5	-16.5	-42.2
						CHANNELS 3  Xrotation Yrotation Zrotation
						End Site
						{
							OFFSET	1	0	0
						}
					}
				}
			}
		}
	}
}
MOTION
Frames: 6
Frame Time: 0.02
1372.05 701.618 -1475.22 -7.79856385444 23.4244281481 1.98956969236 2.41683 -0.157113 -0.287789 2.41687 -0.138482 -0.297203 2.41759 -0.0863452 -0.316309 2.41748 -0.135216 -0.298703 -10.627 9.83074 -3.19701 -10.7618 20.6714 -0.511168 -0.0 0.0 -0.0 10.3443 -1.57087 20.4453 -12.5785 -38.7639 43.2235 1.74257 -40.7978 0.648061 -48.5584 -3.90381 4.60539 -8.13866 11.3222 -56.7567 -0.0 0.0 -0.0 7.86014 -10.6531 -14.8858 -29.1449 20.4143 -60.9817 0.526799 14.626 -0.0676063 40.8867 0.396184 5.09871 -2.72146 -14.503 11.0565 0.0 0.0 0.0 3.23392 14.384 5.11418 -18.1279 0.313222 2.75266 39.8903 16.8337 -4.95308 -13.8786 0.0 0.0 -0.0 0.0 -0.0 35.5889 24.1629 -5.36709 -3.14693 -0.116718 -0.46879 -7.72268 2.63607 -1.17015 -0.368387 0.0 0.0 0.0 0.0 0.0 
1360.29756385 698.717 -1497.75036719 -7.37323939815 24.0792815421 1.79248599048 2.63399 -0.242124 -0.147128 2.63397 -0.232271 -0.162237 2.63464 -0.202317 -0.19834 2.63466 -0.231102 -0.163898 -10.0352 9.3681 -3.6286 -10.1217 20.0784 -1.16751 -0.0 0.0 -0.0 9.69157 -0.223569 19.0293 -14.0226 -38.3782 46.7441 1.63075 -38.9292 0.576381 -46.915 -3.71475 4.51191 -7.9113 11.5883 -53.7194 -0.0 0.0 -0.0 8.11466 -10.5311 -15.3514 -30.0685 20.3408 -60.8071 0.557617 15.4418 -0.0756004 41.4449 0.426543 5.16333 -2.77524 -14.2234 11.5468 0.0 0.0 0.0 2.13606 14.3948 4.93715 -19.7469 0.298565 3.00063 39.7124 16.5259 -4.93145 -13.4405 0.0 0.0 -0.0 0.0 -0.0 34.6835 24.0759 -5.35178 -4.54239 -0.160191 -0.678534 -7.61033 2.72474 -1.15327 -0.0211993 0.0 0.0 0.0 0.0 0.0 
1342.18457572 700.359 -1520.65720982 -6.87182728939 23.2361311105 1.34062527748 2.61204 -0.0986066 -0.103719 2.61204 -0.0918069 -0.109783 2.61222 -0.0723844 -0.123456 2.61221 -0.0909735 -0.110475 -8.1486 9.79725 -4.33444 -8.13053 21.3404 -2.12201 -0.0 0.0 -0.0 9.93836 1.02858 19.4753 -14.902 -37.2718 48.4292 1.50027 -36.617 0.496441 -46.6994 -3.69014 4.49924 -7.20035 9.67636 -48.1946 -0.0 0.0 -0.0 8.27854 -10.8806 -15.621 -29.8039 20.6167 -60.4779 0.629613 17.3224 -0.0959087 41.6206 0.436232 5.18362 -3.01856 -14.9833 12.6877 0.0 0.0 0.0 1.05763 13.6444 5.7489 -20.3696 0.291061 3.09589 39.0744 17.7936 -4.89585 -12.9056 0.0 0.0 -0.0 0.0 -0.0 34.4294 23.5847 -5.54028 -8.29576 -0.251632 -1.24717 -3.87073 5.58011 -0.589071 1.40325 -0.0 -0.0 0.0 0.0 0.0 
1342.80680094 700.359 -1521.06014521 -6.83255772107 22.4605675582 1.23949385581 2.61204 -0.0986066 -0.103719 2.61204 -0.0918069 -0.109783 2.61222 -0.0723844 -0.123456 2.61221 -0.0909735 -0.110475 -8.1486 9.79725 -4.33444 -8.13053 21.3404 -2.12201 -0.0 0.0 -0.0 9.93836 1.02858 19.4753 -14.902 -37.2718 48.4292 1.50027 -36.617 0.496441 -46.6994 -3.69014 4.49924 -7.20035 9.67636 -48.1946 -0.0 0.0 -0.0 8.27854 -10.8806 -15.621 -29.8039 20.6167 -60.4779 0.629613 17.3224 -0.0959087 41.6206 0.436232 5.18362 -3.01856 -14.9833 12.6877 0.0 0.0 0.0 1.05763 13.6444 5.7489 -20.3696 0.291061 3.09589 39.0744 17.7936 -4.89585 -12.9056 0.0 0.0 -0.0 0.0 -0.0 34.4294 23.5847 -5.54028 -8.29576 -0.251632 -1.24717 -3.87073 5.58011 -0.589071 1.40325 -0.0 -0.0 0.0 0.0 0.0 
1313.12815793 709.846 -1567.98132224 -6.50256560442 23.3591703523 0.432413545087 2.5465 0.17276 0.307668 2.54654 0.152832 0.318037 2.54739 0.0977421 0.339045 2.54726 0.150061 0.319354 -9.33782 10.4089 -3.92816 -9.40668 22.226 -1.33102 -0.0 0.0 -0.0 9.5018 3.50392 18.4513 -19.6132 -34.5245 51.4776 1.39452 -34.635 0.434833 -45.7083 -3.57766 4.43983 -7.06481 10.8199 -45.7589 -0.0 0.0 -0.0 8.5536 -10.9179 -16.1135 -28.9225 21.213 -60.5907 0.729711 19.8738 -0.127841 42.0154 0.458221 5.22908 -3.32606 -15.1812 14.544 0.0 0.0 0.0 1.11017 12.7561 6.13404 -21.6622 0.272184 3.29333 32.4336 19.122 -4.25519 -13.1852 0.0 0.0 -0.0 0.0 -0.0 33.1723 22.6917 -5.46059 -13.8543 -0.318218 -2.09714 0.171171 1.80987 0.0254429 3.09478 -0.0 -0.0 0.0 0.0 0.0 
1315.07790387 709.846 -1569.19141394 -6.4459511202 22.1703502767 0.28611136761 2.5465 0.17276 0.307668 2.54654 0.152832 0.318037 2.54739 0.0977421 0.339045 2.54726 0.150061 0.319354 -9.33782 10.4089 -3.92816 -9.40668 22.226 -1.33102 -0.0 0.0 -0.0 9.5018 3.50392 18.4513 -19.6132 -34.5245 51.4776 1.39452 -34.635 0.434833 -45.7083 -3.57766 4.43983 -7.06481 10.8199 -45.7589 -0.0 0.0 -0.0 8.5536 -10.9179 -16.1135 -28.9225 21.213 -60.5907 0.729711 19.8738 -0.127841 42.0154 0.458221 5.22908 -3.32606 -15.1812 14.544 0.0 0.0 0.0 1.11017 12.7561 6.13404 -21.6622 0.272184 3.29333 32.4336 19.122 -4.25519 -13.1852 0.0 0.0 -0.0 0.0 -0.0 33.1723 22.6917 -5.46059 -13.8543 -0.318218 -2.09714 0.171171 1.80987 0.0254429 3.09478 -0.0 -0.0 0.0 0.0 0.0 
